<?xml version="1.0" standalone="no"?>
<!DOCTYPE svg PUBLIC "-//W3C//DTD SVG 20010904//EN"
 "http://www.w3.org/TR/2001/REC-SVG-20010904/DTD/svg10.dtd">
<svg version="1.0" xmlns="http://www.w3.org/2000/svg"
 width="1651.000000pt" height="1651.000000pt" viewBox="0 0 1651.000000 1651.000000"
 preserveAspectRatio="xMidYMid meet">

<g transform="translate(0.000000,1651.000000) scale(0.100000,-0.100000)"
fill="#000000" stroke="none">
<path d="M8030 15994 c-466 -244 -966 -566 -1395 -899 -537 -417 -1087 -952
-1520 -1480 -1439 -1752 -2200 -3949 -2151 -6210 3 -165 9 -323 12 -350 l6
-51 167 -106 c1284 -815 2701 -1298 4216 -1437 1780 -163 3557 173 5145 975
357 180 864 477 874 512 3 9 10 161 17 337 30 853 -62 1727 -271 2580 -335
1362 -976 2646 -1864 3729 -395 482 -939 1022 -1406 1397 -377 302 -796 589
-1200 821 -181 104 -466 258 -478 258 -4 0 -72 -34 -152 -76z m249 -2110 c563
-389 1121 -906 1575 -1459 277 -336 574 -779 794 -1180 515 -944 840 -2062
908 -3127 l7 -106 -79 -37 c-1583 -739 -3358 -918 -5053 -510 -507 123 -1106
337 -1525 547 l-99 50 7 101 c39 582 167 1234 358 1817 470 1436 1371 2718
2565 3648 120 93 433 322 442 322 2 0 47 -30 100 -66z"/>
<path d="M13562 6483 c-58 -28 -86 -76 -90 -152 -3 -56 0 -71 20 -100 31 -45
66 -70 114 -81 74 -17 146 13 192 80 34 51 31 144 -7 197 -16 22 -45 47 -64
56 -44 21 -122 21 -165 0z m144 -22 c170 -77 73 -336 -106 -282 -129 38 -140
226 -17 282 52 23 72 23 123 0z"/>
<path d="M13580 6326 c0 -88 3 -106 15 -106 11 0 15 12 15 45 0 62 28 62 67 0
15 -25 34 -45 41 -45 17 0 15 6 -13 47 l-24 36 24 23 c28 26 32 51 11 79 -10
13 -30 20 -75 23 l-61 4 0 -106z m94 74 c51 -19 23 -70 -38 -70 -24 0 -26 4
-26 40 0 44 13 50 64 30z"/>
<path d="M1932 4740 c-97 -35 -163 -96 -210 -197 -24 -51 -27 -70 -27 -158 0
-93 2 -105 32 -166 80 -162 255 -240 433 -195 65 17 141 59 175 97 19 19 18
21 -22 60 l-40 41 -49 -35 c-88 -61 -172 -74 -254 -36 -58 26 -87 53 -115 110
-71 138 -13 314 120 365 86 32 175 14 276 -58 14 -9 22 -5 50 27 19 21 34 45
34 54 0 22 -86 78 -148 96 -71 21 -189 19 -255 -5z"/>
<path d="M2693 4745 c-178 -55 -291 -248 -253 -431 26 -125 95 -214 208 -267
61 -29 76 -32 163 -32 90 0 99 2 171 38 86 42 133 89 176 177 24 49 27 66 27
155 0 91 -3 106 -31 165 -49 101 -121 163 -224 194 -64 19 -179 20 -237 1z
m211 -119 c93 -39 149 -130 150 -241 0 -111 -49 -191 -144 -234 -161 -73 -340
51 -340 237 0 148 96 250 238 252 34 0 77 -6 96 -14z"/>
<path d="M4194 4751 c-186 -48 -309 -240 -275 -427 33 -176 163 -296 338 -311
166 -14 313 69 382 217 23 48 26 68 26 160 0 95 -3 111 -28 162 -36 74 -102
140 -175 174 -46 22 -74 28 -147 30 -49 2 -104 0 -121 -5z m227 -146 c165
-116 153 -359 -20 -447 -162 -83 -350 37 -351 223 0 105 42 182 125 231 45 26
57 29 127 26 66 -3 82 -7 119 -33z"/>
<path d="M7422 4740 c-132 -47 -218 -151 -242 -292 -38 -219 115 -416 337
-435 224 -18 399 133 411 354 10 181 -90 327 -257 377 -74 22 -183 20 -249 -4z
m235 -121 c81 -39 143 -141 143 -235 0 -49 -29 -129 -63 -170 -17 -20 -53 -47
-81 -60 -162 -76 -345 45 -346 227 0 106 41 182 123 229 66 38 157 42 224 9z"/>
<path d="M8540 4751 c-103 -32 -160 -105 -160 -207 0 -108 57 -165 203 -204
165 -43 197 -63 197 -120 0 -58 -35 -83 -120 -88 -58 -4 -77 0 -127 22 -32 15
-68 37 -81 49 l-24 22 -39 -45 c-21 -25 -39 -48 -39 -52 0 -13 117 -79 170
-95 32 -10 89 -17 136 -17 150 0 240 69 251 192 7 77 -19 140 -74 176 -35 23
-64 33 -225 81 -67 20 -101 53 -101 95 0 99 163 115 285 29 l26 -19 36 50 36
50 -38 25 c-77 53 -232 80 -312 56z"/>
<path d="M9271 4740 c-94 -34 -158 -93 -205 -190 -28 -60 -31 -73 -31 -165 0
-93 2 -105 32 -166 80 -162 255 -240 433 -195 65 17 141 59 175 97 19 19 18
21 -22 60 l-40 41 -49 -35 c-88 -61 -172 -74 -254 -36 -58 26 -87 53 -115 110
-69 134 -17 302 110 360 82 38 196 19 270 -43 l30 -26 39 44 c22 26 36 51 32
59 -8 22 -94 74 -150 90 -70 21 -189 19 -255 -5z"/>
<path d="M10840 4745 c-240 -77 -335 -382 -185 -587 148 -202 489 -191 623 20
125 196 52 454 -156 550 -70 32 -209 41 -282 17z m235 -133 c94 -51 148 -172
124 -280 -41 -191 -257 -267 -396 -139 -60 55 -83 110 -83 195 0 109 55 199
145 238 17 7 59 13 95 13 52 1 75 -5 115 -27z"/>
<path d="M11715 4743 c-63 -23 -137 -74 -169 -116 -14 -18 -38 -60 -53 -92
-24 -52 -28 -72 -27 -150 0 -76 4 -99 27 -149 43 -94 87 -140 174 -183 73 -36
82 -38 173 -38 91 0 100 2 172 38 86 42 133 90 175 177 24 48 27 67 28 155 0
88 -3 107 -27 157 -38 81 -105 150 -181 184 -81 37 -215 44 -292 17z m218
-116 c128 -54 189 -220 129 -352 -30 -65 -56 -93 -117 -121 -165 -78 -345 45
-345 237 0 147 96 248 238 249 34 0 77 -6 95 -13z"/>
<path d="M13565 4747 c-107 -36 -187 -103 -233 -197 -24 -50 -27 -66 -27 -165
0 -100 3 -115 28 -166 34 -70 109 -142 185 -177 50 -23 69 -27 152 -26 127 0
194 26 270 103 87 87 105 133 105 266 0 98 -3 116 -27 167 -34 72 -98 137
-173 173 -49 25 -73 30 -149 32 -56 2 -106 -2 -131 -10z m203 -123 c47 -19 98
-67 125 -119 31 -57 31 -183 0 -241 -103 -194 -380 -170 -449 40 -41 123 21
270 136 320 46 20 141 20 188 0z"/>
<path d="M3350 4385 l0 -365 250 0 250 0 0 60 0 60 -190 0 -190 0 0 305 0 305
-60 0 -60 0 0 -365z"/>
<path d="M4830 4386 l0 -366 60 0 59 0 3 128 3 127 77 3 77 3 93 -131 93 -130
72 0 c40 0 73 2 73 5 0 2 -43 64 -95 137 l-95 133 43 22 c171 87 169 328 -3
407 -40 18 -68 21 -252 24 l-208 4 0 -366z m400 229 c41 -21 64 -68 57 -117
-11 -83 -62 -108 -222 -108 l-115 0 0 120 0 120 125 0 c93 0 134 -4 155 -15z"/>
<path d="M5814 4713 c-9 -20 -78 -180 -155 -355 -76 -175 -139 -323 -139 -329
0 -6 24 -9 62 -7 l62 3 38 85 37 85 172 0 172 0 36 -85 37 -85 68 -3 c56 -2
68 0 63 11 -3 8 -74 172 -159 366 l-153 351 -63 0 -63 0 -15 -37z m133 -245
c29 -68 55 -131 59 -140 6 -17 -4 -18 -116 -18 -71 0 -120 4 -118 9 17 49 114
271 118 271 3 0 29 -55 57 -122z"/>
<path d="M6400 4385 l0 -365 138 0 c75 0 166 5 201 10 121 20 224 94 276 197
27 52 29 68 30 158 0 88 -3 107 -26 156 -48 102 -141 173 -257 198 -29 6 -123
11 -207 11 l-155 0 0 -365z m368 229 c47 -19 98 -68 125 -119 29 -56 29 -164
0 -220 -27 -52 -67 -89 -123 -114 -36 -16 -66 -21 -147 -21 l-103 0 0 245 0
245 105 0 c73 0 117 -5 143 -16z"/>
<path d="M9830 4385 l0 -365 60 0 60 0 0 155 0 155 175 0 175 0 0 -155 0 -156
63 3 62 3 3 363 2 362 -65 0 -65 0 0 -150 0 -150 -175 0 -175 0 0 150 0 150
-60 0 -60 0 0 -365z"/>
<path d="M12380 4385 l0 -365 250 0 250 0 0 60 0 60 -190 0 -190 0 0 305 0
305 -60 0 -60 0 0 -365z"/>
<path d="M14210 4385 l0 -366 63 3 62 3 3 148 3 147 179 0 180 0 0 55 0 55
-180 0 -180 0 0 100 0 100 205 0 205 0 0 60 0 60 -270 0 -270 0 0 -365z"/>
<path d="M13450 3629 c-365 -42 -672 -244 -796 -525 -56 -128 -69 -196 -69
-379 0 -148 3 -181 23 -250 96 -334 316 -487 932 -650 521 -138 646 -221 627
-411 -17 -167 -174 -263 -429 -264 -281 0 -563 106 -827 312 -34 28 -67 46
-71 41 -4 -4 -92 -109 -195 -233 l-188 -224 39 -33 c243 -206 559 -353 889
-414 143 -26 399 -36 531 -20 466 57 756 273 871 648 25 82 27 101 27 268 0
163 -3 188 -25 260 -98 320 -352 494 -944 651 -439 116 -573 184 -604 309 -67
265 223 412 612 310 151 -39 329 -122 470 -217 32 -22 62 -38 67 -36 9 3 328
461 336 482 4 12 -98 87 -203 150 -299 178 -716 266 -1073 225z"/>
<path d="M1630 2105 l0 -1495 320 0 320 0 2 965 3 964 410 -624 c235 -357 416
-624 425 -624 9 0 181 252 430 631 l415 631 3 -972 2 -971 325 0 325 0 0 1495
0 1495 -352 0 -353 0 -390 -630 c-214 -346 -392 -629 -395 -629 -3 0 -180 283
-395 629 l-390 629 -352 1 -353 0 0 -1495z"/>
<path d="M5270 2105 l0 -1495 330 0 330 0 0 1495 0 1495 -330 0 -330 0 0
-1495z"/>
<path d="M6590 2105 l0 -1495 325 0 325 0 2 943 3 944 719 -944 718 -943 279
0 279 0 0 1495 0 1495 -322 -2 -323 -3 -5 -912 -5 -913 -695 915 -695 914
-302 1 -303 0 0 -1495z"/>
<path d="M9870 2105 l0 -1495 1135 0 1135 0 0 295 0 295 -810 0 -810 0 0 310
0 310 705 0 705 0 0 295 0 295 -705 0 -705 0 0 300 0 300 800 0 800 0 0 295 0
295 -1125 0 -1125 0 0 -1495z"/>
<path d="M14845 862 c-72 -35 -105 -87 -105 -166 0 -205 297 -241 351 -43 39
144 -112 272 -246 209z m145 -30 c38 -20 80 -89 80 -132 -1 -42 -37 -108 -72
-130 -47 -30 -137 -24 -174 11 -37 35 -54 72 -54 121 0 113 119 183 220 130z"/>
<path d="M14850 700 c0 -82 3 -100 15 -100 11 0 15 12 15 45 0 62 28 62 67 0
15 -25 34 -45 41 -45 17 0 15 6 -13 48 -23 34 -23 37 -7 46 23 13 32 27 32 53
0 38 -26 53 -91 53 l-59 0 0 -100z m108 71 c8 -4 12 -19 10 -32 -2 -20 -9 -24
-45 -27 l-43 -3 0 35 c0 34 2 36 33 36 17 0 38 -4 45 -9z"/>
</g>
</svg>
