<?xml version="1.0" standalone="no"?>
<!DOCTYPE svg PUBLIC "-//W3C//DTD SVG 20010904//EN"
 "http://www.w3.org/TR/2001/REC-SVG-20010904/DTD/svg10.dtd">
<svg version="1.0" xmlns="http://www.w3.org/2000/svg"
 width="1294.000000pt" height="1294.000000pt" viewBox="0 0 1294.000000 1294.000000"
 preserveAspectRatio="xMidYMid meet">

<g transform="translate(0.000000,1294.000000) scale(0.100000,-0.100000)"
fill="#000000" stroke="none">
<path d="M10515 11350 c-77 -38 -144 -71 -149 -72 -4 -2 22 -64 58 -137 256
-509 409 -1052 456 -1611 14 -170 14 -549 0 -700 -47 -512 -170 -972 -374
-1396 -152 -315 -325 -566 -561 -812 l-108 -113 119 -120 119 -119 63 63 c580
570 942 1354 1056 2284 66 538 27 1149 -109 1698 -91 371 -179 606 -378 1017
-23 48 -44 87 -47 87 -3 0 -68 -32 -145 -69z"/>
<path d="M11670 10073 c-91 -18 -166 -32 -166 -33 -1 0 5 -30 13 -67 66 -313
95 -594 96 -918 0 -498 -65 -905 -218 -1364 -200 -599 -516 -1122 -930 -1537
-208 -208 -398 -356 -630 -488 -55 -32 -103 -61 -107 -64 -4 -4 30 -73 75
-153 l82 -145 95 54 c140 80 331 208 450 303 136 108 432 404 543 543 531 668
854 1482 954 2403 24 221 24 718 0 933 -17 153 -43 315 -75 480 l-17 86 -165
-33z"/>
<path d="M12266 8448 c-33 -480 -151 -972 -338 -1413 -453 -1067 -1355 -1931
-2312 -2214 -72 -22 -156 -45 -186 -52 -30 -7 -58 -16 -63 -19 -6 -5 49 -262
68 -317 8 -24 429 103 635 192 201 86 469 238 655 370 360 257 737 638 1001
1009 431 608 718 1306 829 2010 24 157 60 494 53 502 -2 2 -58 8 -124 14 -65
6 -140 13 -165 16 l-46 6 -7 -104z"/>
<path d="M12546 6723 c-256 -671 -661 -1256 -1196 -1727 -542 -478 -1234 -819
-1874 -925 -184 -31 -310 -41 -511 -41 l-182 0 -7 -161 c-4 -88 -5 -163 -3
-166 3 -2 77 -7 164 -10 1475 -51 3076 1048 3798 2607 59 127 199 480 193 485
-6 5 -301 115 -308 115 -4 0 -37 -80 -74 -177z"/>
<path d="M12399 5093 c-224 -301 -476 -571 -738 -788 -637 -528 -1398 -858
-2206 -957 -170 -20 -677 -17 -830 5 -126 19 -389 80 -515 121 -41 13 -76 23
-77 22 -4 -4 -103 -319 -101 -322 9 -8 372 -106 458 -123 524 -105 1066 -87
1634 56 925 231 1779 760 2426 1503 79 91 307 388 312 408 3 9 -249 202 -263
202 -3 0 -48 -57 -100 -127z"/>
<path d="M11739 3497 c-237 -180 -419 -294 -684 -428 -227 -114 -382 -178
-625 -258 -629 -206 -1355 -259 -1985 -145 -430 77 -802 217 -1138 429 -77 48
-142 83 -147 79 -4 -5 -46 -68 -93 -141 l-85 -132 76 -49 c132 -85 265 -159
424 -237 1057 -512 2520 -451 3729 155 211 105 295 154 494 286 127 85 398
283 433 318 4 4 -198 261 -206 263 -4 0 -91 -63 -193 -140z"/>
</g>
</svg>
